<svg version="1.2" xmlns="http://www.w3.org/2000/svg" viewBox="0 0 92 92" width="92" height="92">
	<title>216636_github_icon-svg</title>
	<style>
		.s0 { fill: #ffffff } 
	</style>
	<path id="Layer" fill-rule="evenodd" class="s0" d="m92 48.5c0 35.9-29.8 36.5-37.3 36.5-1.7 0-5.1 0-8.7 0-3.6 0-7 0-8.7 0-7.5 0-37.3-0.6-37.3-36.5 0-8.3 2.8-14.3 7.5-19.4-0.8-1.8-0.8-12.2 3.1-22.1 0 0 9.1 1 22.8 10.4 2.9-0.8 7.7-1.2 12.6-1.2 4.9 0 9.7 0.4 12.6 1.2 13.7-9.4 22.8-10.4 22.8-10.4 3.9 9.9 3.9 20.3 3.1 22.1 4.7 5.1 7.5 11.1 7.5 19.4zm-12.3 11.5c0-4.4-1.6-8.5-5.2-11.9-6.2-5.6-16.6-2.6-28.4-2.6q0 0-0.1 0-0.1 0-0.1 0c-11.8 0-22.2-3-28.4 2.6-3.6 3.4-5.2 7.5-5.2 11.9 0 18.3 14.7 20.6 33.6 20.6h0.2c18.9 0 33.6-2.3 33.6-20.6zm-11.3 1.5c0 5-2.9 9-6.5 9-3.6 0-6.5-4-6.5-9 0-4.9 2.9-9 6.5-9 3.6 0 6.5 4.1 6.5 9zm-31.8 0c0 5-2.9 9-6.5 9-3.6 0-6.5-4-6.5-9 0-4.9 2.9-9 6.5-9 3.6 0 6.5 4.1 6.5 9z"/>
	<path id="Layer copy" fill-rule="evenodd" class="s0" d="m92 48.5c0 35.9-29.8 36.5-37.3 36.5-1.7 0-5.1 0-8.7 0-3.6 0-7 0-8.7 0-7.5 0-37.3-0.6-37.3-36.5 0-8.3 2.8-14.3 7.5-19.4-0.8-1.8-0.8-12.2 3.1-22.1 0 0 9.1 1 22.8 10.4 2.9-0.8 7.7-1.2 12.6-1.2 4.9 0 9.7 0.4 12.6 1.2 13.7-9.4 22.8-10.4 22.8-10.4 3.9 9.9 3.9 20.3 3.1 22.1 4.7 5.1 7.5 11.1 7.5 19.4zm-12.3 11.5c0-4.4-1.6-8.5-5.2-11.9-6.2-5.6-16.6-2.6-28.4-2.6q0 0-0.1 0-0.1 0-0.1 0c-11.8 0-22.2-3-28.4 2.6-3.6 3.4-5.2 7.5-5.2 11.9 0 18.3 14.7 20.6 33.6 20.6h0.2c18.9 0 33.6-2.3 33.6-20.6zm-11.3 1.5c0 5-2.9 9-6.5 9-3.6 0-6.5-4-6.5-9 0-4.9 2.9-9 6.5-9 3.6 0 6.5 4.1 6.5 9zm-31.8 0c0 5-2.9 9-6.5 9-3.6 0-6.5-4-6.5-9 0-4.9 2.9-9 6.5-9 3.6 0 6.5 4.1 6.5 9z"/>
	<g id="Layer">
	</g>
	<g id="Layer">
	</g>
	<g id="Layer">
	</g>
	<g id="Layer">
	</g>
	<g id="Layer">
	</g>
	<g id="Layer">
	</g>
	<g id="Layer">
	</g>
	<g id="Layer">
	</g>
	<g id="Layer">
	</g>
	<g id="Layer">
	</g>
	<g id="Layer">
	</g>
	<g id="Layer">
	</g>
	<g id="Layer">
	</g>
	<g id="Layer">
	</g>
	<g id="Layer">
	</g>
</svg>