<svg version="1.2" xmlns="http://www.w3.org/2000/svg" viewBox="0 0 115 115" width="115" height="115">
	<title>info_icon-svg</title>
	<style>
		.s0 { mix-blend-mode: luminosity;fill: #9b9b9b } 
		.s1 { fill: #9b9b9b } 
	</style>
	<g id="Layer">
		<path id="Layer" class="s0" d="m63.1 90.6l3.4-13.6 7.4-30c1.4-5.4-1.9-10.8-7.3-12.2l-0.9-0.2q-1-0.2-2-0.3v-0.2q0 0-0.4 0.2c-3.1 0-7.6 3-7.6 3-8.7 6.1-20.6 14.1-18.9 18 2.7 5.8 15.8-9.5 12.7 3.1l-3.4 13.6-7.5 30.1c-1.3 5.3 1.5 10.6 6.9 12l1 0.2q0.9 0.3 1.9 0.3v0.2q0 0 0.4-0.2c3.1 0 7.6-3 7.6-3 8.7-6 20.9-14.1 19.1-17.9-2.7-5.8-15.5 9.5-12.4-3.1z"/>
		<path id="Layer" class="s1" d="m61.7 28.2c-7.7 0-14-6.2-14-14 0-7.7 6.3-14 14-14 7.8 0 14 6.3 14 14 0 7.8-6.2 14-14 14z"/>
	</g>
</svg>