<?xml version="1.0" encoding="UTF-8"?>
<!DOCTYPE svg PUBLIC "-//W3C//DTD SVG 1.1//EN" "http://www.w3.org/Graphics/SVG/1.1/DTD/svg11.dtd">
<svg width="800pt" height="500pt" viewBox="0 0 800 500" version="1.1" xmlns="http://www.w3.org/2000/svg">
<path fill="#fff" stroke="#fff" stroke-width="0.09375" opacity="1.00" d=" M 367.2 93.1 C 428.0 69.1 486.9 40.6 545.8 12.2 C 535.7 18.1 525.4 23.7 515.1 29.3 C 464.3 56.7 413.2 83.6 360.6 107.4 C 343.1 115.3 324.2 121.6 309.9 134.9 C 301.3 142.7 295.6 154.4 297.5 166.1 C 298.2 171.2 301.5 175.6 306.1 178.0 C 314.0 182.1 323.3 182.2 332.0 181.9 C 344.7 181.0 357.4 178.7 369.4 174.5 C 418.4 159.5 469.0 149.4 520.1 144.9 C 556.7 141.2 593.3 137.3 629.9 133.0 C 649.7 131.6 669.5 132.6 689.1 135.1 C 709.1 137.9 729.0 142.8 747.1 151.7 C 761.2 158.8 774.3 168.8 782.7 182.4 C 792.9 198.5 795.7 218.6 792.6 237.2 C 790.0 252.1 782.0 265.7 770.8 275.7 C 757.8 287.4 741.7 294.9 725.3 300.3 C 705.5 306.7 684.8 309.9 664.2 311.9 C 644.8 313.4 625.4 314.1 606.0 313.2 C 594.7 312.9 583.4 311.7 572.0 312.0 C 545.6 311.6 519.3 311.8 492.9 312.1 C 451.0 313.3 409.0 314.8 367.5 321.4 C 337.9 326.6 308.3 332.0 278.8 338.0 C 281.3 346.7 284.4 355.3 287.0 364.0 C 301.3 409.1 314.6 454.5 327.9 500.0 L 294.0 500.0 C 282.8 447.3 272.2 394.4 259.0 342.1 C 252.0 344.0 244.7 345.3 237.9 347.9 C 183.5 360.8 129.5 375.2 76.1 391.8 C 63.0 395.7 50.1 400.2 36.9 403.9 C 109.1 377.0 182.7 353.9 257.3 334.8 C 254.3 322.2 250.8 309.7 247.2 297.3 C 244.3 297.9 241.5 298.7 238.7 299.5 C 183.9 314.3 129.8 331.8 77.5 354.0 C 74.5 314.6 69.0 275.5 61.4 236.8 C 56.0 208.7 48.7 181.1 41.2 153.6 C 29.1 109.5 16.4 65.7 3.3 21.9 C 2.6 19.6 1.8 17.3 1.4 14.9 C 3.5 18.5 5.2 22.4 7.1 26.1 C 27.7 68.3 46.4 111.4 62.7 155.5 C 70.2 176.2 77.0 197.2 84.1 218.0 C 90.9 238.6 97.8 259.2 103.9 280.1 C 105.5 285.9 107.3 291.7 108.2 297.7 C 112.7 298.2 116.8 296.1 121.1 295.1 C 159.9 284.8 199.1 275.7 238.6 268.7 C 233.3 253.5 228.7 238.1 223.4 222.9 C 209.7 182.1 195.2 141.6 180.4 101.1 C 187.1 114.9 193.0 129.0 199.3 142.9 C 217.6 183.7 235.5 224.8 253.0 266.0 C 300.6 257.4 348.8 252.1 397.0 248.5 C 466.9 243.3 537.0 240.5 607.0 238.5 C 620.3 237.8 633.7 238.2 647.0 237.3 C 633.7 239.4 620.3 240.1 606.9 241.6 C 542.5 248.0 478.2 255.3 414.1 264.5 C 363.5 271.9 312.7 279.8 263.3 293.3 C 268.0 305.4 271.9 317.9 276.1 330.2 C 313.5 321.5 351.1 313.8 389.1 308.9 C 434.0 302.8 479.2 299.0 524.1 292.6 C 549.6 288.9 575.1 284.6 599.6 276.3 C 613.8 271.3 628.2 264.9 638.8 253.8 C 646.9 245.6 651.5 233.7 650.3 222.2 C 649.2 212.8 642.6 205.1 635.1 199.8 C 622.6 191.1 607.7 186.7 593.0 183.5 C 575.9 180.0 558.5 178.7 541.1 178.3 C 494.3 177.6 448.1 185.9 402.6 195.8 C 374.3 201.6 346.2 208.6 317.6 212.9 C 303.6 214.5 289.1 216.5 275.4 212.5 C 271.7 209.6 267.3 208.1 263.4 205.6 C 254.9 200.3 247.1 193.1 243.5 183.6 C 240.4 175.4 242.0 166.0 246.4 158.6 C 252.8 147.5 263.1 139.5 273.7 132.6 C 284.5 125.6 296.2 120.0 308.0 115.0 C 327.3 106.6 347.7 100.9 367.2 93.1 Z"/>
<path fill="#fff" stroke="#fff" stroke-width="0.09375" opacity="1.00" d=" M 162.2 169.0 C 164.0 170.1 165.2 171.9 166.6 173.4 C 177.5 186.0 187.3 200.2 191.4 216.5 C 192.3 221.6 193.7 226.7 193.0 231.9 C 190.4 240.1 187.7 249.1 180.5 254.5 C 177.8 257.2 175.2 260.1 171.6 261.5 C 167.8 262.8 165.0 266.1 160.9 266.8 C 152.6 268.3 144.1 270.3 135.8 268.3 C 131.9 267.2 128.8 264.6 125.3 262.6 C 122.1 260.8 120.6 257.2 117.9 254.8 C 113.5 249.8 112.3 243.1 110.0 237.0 C 108.6 230.8 107.4 224.4 107.5 218.0 C 108.1 208.0 107.2 197.9 109.0 188.0 C 110.2 182.4 110.4 176.5 112.6 171.1 C 111.8 179.4 112.7 187.8 113.1 196.1 C 114.6 208.8 116.6 221.8 122.6 233.3 C 126.2 240.2 131.9 246.6 139.7 248.5 C 149.2 250.7 159.0 247.3 167.0 242.4 C 175.3 237.2 180.3 227.6 180.1 217.9 C 180.3 200.1 171.6 183.6 162.2 169.0 Z"/>
</svg>